<svg width="1440" height="773" viewBox="0 0 1440 773" fill="none" xmlns="http://www.w3.org/2000/svg">
<path opacity="0.2" d="M457.18 673.114C166.879 687.135 32.4754 628.761 -3 608.635V524.775H1437V684.668C1200.66 815.862 892.435 647.743 660.04 661.933C519.637 670.505 526.632 669.759 457.18 673.114Z" fill="url(#paint0_linear)"/>
<path opacity="0.2" d="M1434 1.49088H-6V551.61C417 524.775 391.5 691.749 808.5 634.352C1033.82 603.338 1220.5 687.277 1434 628.389V1.49088Z" fill="url(#paint1_linear)"/>
<path d="M0 0H1440V629.879C1081 601.554 1149 511.73 742 601.554C522.297 650.041 294 504.276 0 551.983V0Z" fill="url(#paint2_linear)"/>
<defs>
<linearGradient id="paint0_linear" x1="39.4702" y1="467.006" x2="1591.81" y2="1030.47" gradientUnits="userSpaceOnUse">
<stop stop-color="#5D8A94"/>
<stop offset="1" stop-color="#BADAE0"/>
</linearGradient>
<linearGradient id="paint1_linear" x1="75.5" y1="568.755" x2="1120.82" y2="-516.664" gradientUnits="userSpaceOnUse">
<stop stop-color="#5D8A94"/>
<stop offset="1" stop-color="#BADAE0"/>
</linearGradient>
<linearGradient id="paint2_linear" x1="7.40795e-05" y1="45.4705" x2="1513.33" y2="1327.91" gradientUnits="userSpaceOnUse">
<stop stop-color="#5D8A94"/>
<stop offset="0.0001" stop-color="#5D8A94"/>
<stop offset="1" stop-color="#BADAE0"/>
</linearGradient>
</defs>
</svg>
