<svg width="1440" height="400" viewBox="0 0 1440 400" fill="none" xmlns="http://www.w3.org/2000/svg">
<mask id="mask0" mask-type="alpha" maskUnits="userSpaceOnUse" x="0" y="0" width="1440" height="400">
<rect width="1440" height="400" fill="black"/>
</mask>
<g mask="url(#mask0)">
<path d="M1248.27 397.601C1548.01 397.601 1248.27 397.601 1791 397.601C1791 395.606 1790.92 194.817 1790.76 192.837H1791V0H0V192.837H0.480451C0.161652 194.81 0 196.798 0 198.801C0 253.698 121.494 298.16 271.364 298.201C289.081 298.206 302.4 296.993 315.96 295.758C328.072 294.655 340.377 293.535 356.183 293.249C433.492 291.849 482.905 308.43 532.704 325.14C581.229 341.423 630.121 357.829 705.545 357.841C740.99 357.847 767.506 354.573 794.22 351.276C819.745 348.125 845.452 344.952 879.304 344.594C957.448 343.768 1011.3 357.3 1065.4 370.896C1118.41 384.218 1171.67 397.601 1248.27 397.601Z" fill="#5D8A94" fill-opacity="0.3"/>
<path d="M924.242 359.82C1209.09 359.82 924.242 359.82 1440 359.82C1440 358.015 1439.92 176.305 1439.77 174.513H1440V0H-262V174.513H-261.543C-261.846 176.298 -262 178.098 -262 179.91C-262 229.591 -146.544 269.828 -4.1212 269.865C12.7158 269.869 25.3724 268.772 38.2593 267.655C49.7694 266.657 61.4631 265.643 76.4829 265.384C149.951 264.117 196.908 279.122 244.232 294.245C290.346 308.98 336.808 323.827 408.485 323.838C442.169 323.843 467.366 320.881 492.753 317.897C517.009 315.045 541.439 312.173 573.608 311.85C647.87 311.102 699.043 323.348 750.458 335.653C800.837 347.708 851.449 359.82 924.242 359.82Z" fill="#BADAE0" fill-opacity="0.6"/>
<path d="M1003.64 379.011C1244.63 379.01 1003.64 379.011 1440 379.011C1440 377.109 1439.94 185.708 1439.81 183.82H1440V0H0V183.82H0.386293C0.129972 185.701 0 187.596 0 189.505C0 241.836 97.6833 284.219 218.182 284.258C232.427 284.263 243.135 283.107 254.038 281.93C263.777 280.878 273.67 279.81 286.378 279.537C348.537 278.203 388.266 294.009 428.305 309.938C467.32 325.459 506.63 341.098 567.273 341.109C595.771 341.115 617.09 337.995 638.569 334.851C659.091 331.847 679.76 328.823 706.978 328.482C769.808 327.695 813.103 340.594 856.604 353.554C899.227 366.253 942.048 379.011 1003.64 379.011Z" fill="url(#paint0_linear)"/>
</g>
<defs>
<linearGradient id="paint0_linear" x1="0" y1="0" x2="1177.63" y2="776.778" gradientUnits="userSpaceOnUse">
<stop offset="0.0572917" stop-color="#BADAE0"/>
<stop offset="1" stop-color="#5D8A94"/>
</linearGradient>
</defs>
</svg>
