<svg width="460" height="423" viewBox="0 0 460 423" fill="none" xmlns="http://www.w3.org/2000/svg">
<path d="M441.154 152.574C445.944 152.574 450.538 151.247 453.925 148.885C457.312 146.523 459.215 143.319 459.215 139.978C459.215 136.638 457.312 133.434 453.925 131.072C450.538 128.71 445.944 127.383 441.154 127.383H423.093V102.191H441.154C445.944 102.191 450.538 100.864 453.925 98.5022C457.312 96.14 459.215 92.9363 459.215 89.5957C459.215 86.2551 457.312 83.0514 453.925 80.6892C450.538 78.3271 445.944 77 441.154 77H116.061C111.271 77 106.677 78.3271 103.29 80.6892C99.9028 83.0514 98 86.2551 98 89.5957C98 92.9363 99.9028 96.14 103.29 98.5022C106.677 100.864 111.271 102.191 116.061 102.191H170.243V127.383H116.061C111.271 127.383 106.677 128.71 103.29 131.072C99.9028 133.434 98 136.638 98 139.978C98 143.319 99.9028 146.523 103.29 148.885C106.677 151.247 111.271 152.574 116.061 152.574H134.121V177.765H116.061C111.271 177.765 106.677 179.093 103.29 181.455C99.9028 183.817 98 187.021 98 190.361C98 193.702 99.9028 196.905 103.29 199.268C106.677 201.63 111.271 202.957 116.061 202.957H170.243V228.148H116.061C111.271 228.148 106.677 229.475 103.29 231.837C99.9028 234.2 98 237.403 98 240.744C98 244.084 99.9028 247.288 103.29 249.65C106.677 252.013 111.271 253.34 116.061 253.34H134.121V278.531H116.061C111.271 278.531 106.677 279.858 103.29 282.22C99.9028 284.582 98 287.786 98 291.127C98 294.467 99.9028 297.671 103.29 300.033C106.677 302.395 111.271 303.722 116.061 303.722H441.154C445.944 303.722 450.538 302.395 453.925 300.033C457.312 297.671 459.215 294.467 459.215 291.127C459.215 287.786 457.312 284.582 453.925 282.22C450.538 279.858 445.944 278.531 441.154 278.531H386.972V253.34H441.154C445.944 253.34 450.538 252.013 453.925 249.65C457.312 247.288 459.215 244.084 459.215 240.744C459.215 237.403 457.312 234.2 453.925 231.837C450.538 229.475 445.944 228.148 441.154 228.148H423.093V202.957H441.154C445.944 202.957 450.538 201.63 453.925 199.268C457.312 196.905 459.215 193.702 459.215 190.361C459.215 187.021 457.312 183.817 453.925 181.455C450.538 179.093 445.944 177.765 441.154 177.765H386.972V152.574H441.154ZM206.364 102.191H278.607V127.383H206.364V102.191ZM350.85 152.574V177.765H278.607V152.574H350.85ZM170.243 152.574H242.486V177.765H170.243V152.574ZM278.607 202.957V228.148H206.364V202.957H278.607ZM242.486 278.531H170.243V253.34H242.486V278.531ZM350.85 278.531H278.607V253.34H350.85V278.531ZM386.972 228.148H314.729V202.957H386.972V228.148ZM314.729 127.383V102.191H386.972V127.383H314.729Z" fill="white" fill-opacity="0.3"/>
<g filter="url(#filter0_d)">
<path d="M302.894 90.5929C295.441 86.5858 286.462 85.6118 277.809 87.8717C269.155 90.1316 261.487 95.4531 256.385 102.739L235.058 134.732C231.237 140.555 229.295 147.246 229.497 153.887C229.7 160.527 232.037 166.793 236.188 171.824L217.259 200.339L190.991 185.272C186.234 182.463 180.712 180.943 174.961 180.86C169.21 180.777 163.424 182.134 158.163 184.798C152.902 187.462 148.344 191.343 144.931 196.067C141.518 200.791 139.364 206.196 138.679 211.761L126.821 302.569C126.026 308.567 126.965 314.537 129.533 319.811C132.102 325.085 136.199 329.454 141.365 332.43C145.13 334.668 149.387 336.103 153.876 336.646C158.365 337.19 162.99 336.831 167.467 335.59C171.212 334.682 174.809 333.149 178.09 331.062L260.083 280.485C265.126 277.42 269.358 273.207 272.369 268.253C275.38 263.298 277.068 257.77 277.27 252.205C277.472 246.639 276.181 241.223 273.522 236.482C270.863 231.74 266.926 227.834 262.092 225.141L235.824 210.073L254.753 181.557C261.452 182.75 268.524 181.882 274.999 179.072C281.475 176.262 287.037 171.648 290.923 165.862L312.119 133.793C316.773 126.422 318.411 117.805 316.691 109.75C314.971 101.696 310.026 94.8297 302.894 90.5929ZM249.107 244.43C250.674 245.35 251.943 246.658 252.793 248.232C253.643 249.805 254.047 251.592 253.965 253.424C253.883 255.255 253.32 257.071 252.327 258.7C251.334 260.329 249.945 261.717 248.291 262.733L166.647 313.877C164.857 314.926 162.84 315.505 160.812 315.552C158.784 315.598 156.822 315.111 155.137 314.142C153.449 313.176 152.101 311.765 151.236 310.059C150.372 308.353 150.024 306.417 150.23 304.459L162.198 213.623C162.233 211.677 162.815 209.739 163.881 208.013C164.947 206.286 166.457 204.837 168.252 203.819C169.073 203.514 169.919 203.293 170.775 203.16C173.655 202.42 176.638 202.782 179.081 204.17L205.349 219.238L197.668 230.673C196.841 231.908 196.264 233.271 195.971 234.684C195.678 236.096 195.675 237.53 195.96 238.903C196.246 240.276 196.816 241.56 197.637 242.682C198.457 243.803 199.513 244.74 200.742 245.439C201.965 246.147 203.339 246.604 204.786 246.783C206.232 246.961 207.722 246.859 209.17 246.481C210.618 246.102 211.996 245.456 213.222 244.579C214.449 243.702 215.501 242.612 216.318 241.371L223.868 229.861L249.107 244.43ZM293.444 124.089L272.227 156.053C270.985 157.886 269.236 159.364 267.199 160.303C265.161 161.242 262.926 161.599 260.773 161.331C258.619 161.063 256.642 160.181 255.089 158.795C253.537 157.409 252.477 155.581 252.042 153.54C251.487 150.809 252.085 147.896 253.708 145.43L274.904 113.362C275.721 112.121 276.773 111.03 278 110.153C279.226 109.276 280.604 108.63 282.052 108.252C283.5 107.874 284.99 107.771 286.437 107.95C287.883 108.129 289.257 108.586 290.48 109.294C291.709 109.992 292.765 110.929 293.585 112.051C294.406 113.173 294.976 114.457 295.262 115.83C295.547 117.202 295.544 118.636 295.251 120.049C294.958 121.462 294.381 122.825 293.554 124.06L293.444 124.089Z" fill="white"/>
</g>
<ellipse rx="17.5677" ry="36.792" transform="matrix(-0.819152 -0.573576 0.621141 -0.783698 270.089 135.978)" fill="white"/>
<defs>
<filter id="filter0_d" x="126.546" y="86.6786" width="198.812" height="258.214" filterUnits="userSpaceOnUse" color-interpolation-filters="sRGB">
<feFlood flood-opacity="0" result="BackgroundImageFix"/>
<feColorMatrix in="SourceAlpha" type="matrix" values="0 0 0 0 0 0 0 0 0 0 0 0 0 0 0 0 0 0 127 0"/>
<feOffset dx="4" dy="4"/>
<feGaussianBlur stdDeviation="2"/>
<feColorMatrix type="matrix" values="0 0 0 0 0 0 0 0 0 0 0 0 0 0 0 0 0 0 0.3 0"/>
<feBlend mode="normal" in2="BackgroundImageFix" result="effect1_dropShadow"/>
<feBlend mode="normal" in="SourceGraphic" in2="effect1_dropShadow" result="shape"/>
</filter>
</defs>
</svg>
